<?xml version="1.0" encoding="UTF-8"?>
<svg version="1.1" xmlns="http://www.w3.org/2000/svg" width="2500" height="1250">
<path d="M0 0 C4.84890801 3.79123529 9.53089279 7.87175456 13 13 C13 13.66 13 14.32 13 15 C14.13953125 14.49210937 15.2790625 13.98421875 16.453125 13.4609375 C40.2628321 3.02589751 64.90359357 -3.28289445 91 -4 C91.98613281 -4.03996094 92.97226562 -4.07992188 93.98828125 -4.12109375 C121.64710684 -4.73095112 150.58043943 0.41703717 175.90234375 11.7109375 C178.90242976 13.192101 178.90242976 13.192101 182 13 C183.6333031 11.47015442 183.6333031 11.47015442 185.1875 9.4375 C191.86271087 1.54988131 198.31788957 -3.26664386 208 -7 C208.76828125 -7.32097656 209.5365625 -7.64195312 210.328125 -7.97265625 C223.49760291 -12.78802657 237.53376402 -10.59564001 250 -5 C262.50898337 1.43000038 272.89282535 11.46944406 277.68457031 24.921875 C282.8778073 41.38706875 281.95756514 56.56273916 274 72 C271.84801494 75.17358676 269.48222148 78.08250745 267 81 C265.99117753 82.32667065 264.9884607 83.65808971 264 85 C264.61746094 85.93457031 265.23492187 86.86914062 265.87109375 87.83203125 C284.45711256 116.44325837 297.00521918 150.52277617 297.203125 184.92578125 C297.21018463 185.74697449 297.21724426 186.56816772 297.22451782 187.41424561 C297.44882508 221.14957966 297.44882508 221.14957966 294 236 C293.81195801 236.87188965 293.62391602 237.7437793 293.43017578 238.64208984 C286.10976174 272.12264697 270.31876054 302.14877377 248 328 C247.18015625 328.95390625 246.3603125 329.9078125 245.515625 330.890625 C240.92913954 336.11980269 240.92913954 336.11980269 239 338 C238.34 338 237.68 338 237 338 C237 338.66 237 339.32 237 340 C236.34 340 235.68 340 235 340 C235 340.66 235 341.32 235 342 C233.43059199 343.43812673 231.79125965 344.8003005 230.125 346.125 C229.10921875 346.93453125 228.0934375 347.7440625 227.046875 348.578125 C226.04140625 349.37734375 225.0359375 350.1765625 224 351 C223.22140625 351.65484375 222.4428125 352.3096875 221.640625 352.984375 C209.31206177 363.27234845 195.52599673 371.26750966 181 378 C179.90945313 378.52078125 178.81890625 379.0415625 177.6953125 379.578125 C159.65407334 387.79835387 140.53721661 392.15801826 121 395 C119.88343018 395.1750708 118.76686035 395.3501416 117.61645508 395.53051758 C67.93102741 401.98060044 16.02131645 385.04172846 -23.4375 355.25 C-29.80602327 350.34043365 -35.71439912 344.9760628 -41.51708984 339.41552734 C-42.8591556 338.13444449 -44.21958521 336.87266783 -45.58203125 335.61328125 C-73.87337104 308.69308878 -91.30189218 270.78939689 -99 233 C-99.16516113 232.23236328 -99.33032227 231.46472656 -99.50048828 230.67382812 C-104.70330447 205.85956932 -103.48175877 178.6213872 -98 154 C-97.79632813 153.07364746 -97.59265625 152.14729492 -97.3828125 151.19287109 C-92.41429564 129.40577132 -83.43450838 109.13385308 -72 90 C-71.11634766 88.52080078 -71.11634766 88.52080078 -70.21484375 87.01171875 C-69.81394531 86.34785156 -69.41304687 85.68398438 -69 85 C-69.58007812 84.42894531 -70.16015625 83.85789062 -70.7578125 83.26953125 C-82.22098314 71.37128977 -86.41898376 58.18935046 -86.36572266 41.9909668 C-86.08073303 26.97933414 -79.65079107 15.1333481 -69.46484375 4.3203125 C-49.78358522 -14.20689442 -21.96420714 -14.56503569 0 0 Z M60 15 C59.13342773 15.19867676 58.26685547 15.39735352 57.37402344 15.60205078 C26.06604397 23.00484083 -2.19498967 36.95189715 -25.8046875 58.9609375 C-28.65215382 61.60573718 -31.62038095 64.09767024 -34.6015625 66.58984375 C-36.23471676 67.90568483 -36.23471676 67.90568483 -36 70 C-36.66 70 -37.32 70 -38 70 C-41.25714194 73.44326433 -44.09517385 77.25790044 -47 81 C-47.44085938 81.56203125 -47.88171875 82.1240625 -48.3359375 82.703125 C-72.5538278 113.78041775 -84.84100253 150.85181484 -87 190 C-87.0721875 191.17949219 -87.144375 192.35898437 -87.21875 193.57421875 C-88.39049804 233.26718369 -74.80546368 274.36092853 -51 306 C-50.36707031 306.84433594 -49.73414063 307.68867187 -49.08203125 308.55859375 C-19.03509067 347.278878 25.10322152 373.41540102 73.91015625 379.62109375 C113.46552564 383.5816954 152.03944944 377.42557237 187 358 C187.63486328 357.64824707 188.26972656 357.29649414 188.92382812 356.93408203 C202.19141208 349.4869644 213.96376326 340.48361222 225 330 C225.52706543 329.5054834 226.05413086 329.0109668 226.59716797 328.50146484 C258.98064951 297.94734974 280.49068067 253.4324725 282.12231445 208.64233398 C282.20700234 204.67786631 282.24659261 200.71521805 282.25 196.75 C282.25067474 196.04235504 282.25134949 195.33471008 282.25204468 194.60562134 C282.19906347 159.47907733 272.39682975 123.00677819 252 94 C251.39800781 93.12601563 250.79601562 92.25203125 250.17578125 91.3515625 C221.3961188 50.60469762 179.30607951 22.77661785 130 14 C128.99598145 13.82122314 127.99196289 13.64244629 126.95751953 13.45825195 C117.39371149 11.91780504 108.03363609 11.64012021 98.375 11.6875 C97.18629303 11.69073273 97.18629303 11.69073273 95.97357178 11.69403076 C83.7670651 11.74721882 71.93451646 12.22458905 60 15 Z " fill="#FF005C" transform="translate(224,432)"/>
<path d="M0 0 C11.88 0 23.76 0 36 0 C36 91.41 36 182.82 36 277 C33.01099603 278.49450198 29.93542181 278.18336418 26.65625 278.203125 C25.93135376 278.20882507 25.20645752 278.21452515 24.45959473 278.22039795 C22.92636576 278.22984603 21.39311651 278.23638117 19.85986328 278.24023438 C17.50908323 278.24996241 15.15916935 278.2809949 12.80859375 278.3125 C11.3203177 278.31902788 9.83203539 278.32427919 8.34375 278.328125 C7.63851196 278.3404718 6.93327393 278.3528186 6.20666504 278.36553955 C4.22460938 278.35644531 4.22460938 278.35644531 1 278 C-1.56616632 274.15075052 -1.55097676 271.5650696 -2 267 C-4.70702871 267 -6.3959008 268.27843064 -8.69580078 269.59130859 C-31.91160368 282.78277341 -60.10748133 285.79988906 -85.921875 279 C-111.21639272 271.87289944 -131.01321962 256.50459958 -144.15380859 233.74267578 C-157.53966772 209.55707769 -159.18804944 180.31533769 -151.93359375 153.91015625 C-148.09575195 141.63666218 -142.36189943 130.76726068 -134 121 C-133.34515625 120.20078125 -132.6903125 119.4015625 -132.015625 118.578125 C-116.29988644 100.10926436 -94.28496804 89.50529728 -70.23950195 87.16772461 C-45.26952265 85.29763023 -22.039738 89.973508 -1 104 C-0.505 52.52 -0.505 52.52 0 0 Z M-80 123 C-80.97839844 123.4021875 -81.95679687 123.804375 -82.96484375 124.21875 C-90.50458043 127.64158128 -96.20920627 132.1286387 -102 138 C-102.64839844 138.63808594 -103.29679687 139.27617188 -103.96484375 139.93359375 C-116.17115954 152.78094144 -119.64653211 170.2224294 -119.39794922 187.35009766 C-118.80403743 205.09280666 -113.11485523 220.92059217 -100.55859375 233.66796875 C-85.53900016 247.35758306 -69.34499994 249.81821423 -49.75732422 249.18798828 C-44.12097516 248.80371444 -39.17916375 247.25556904 -34 245 C-32.92685547 244.58427734 -32.92685547 244.58427734 -31.83203125 244.16015625 C-18.80468016 238.51757105 -8.44749538 226.68895366 -3.02734375 213.8046875 C4.39478039 193.54200638 4.27489955 171.57373293 -4.5625 151.7421875 C-6.86912515 147.34204931 -9.68821402 143.68645268 -13 140 C-13.66902344 139.23816406 -14.33804688 138.47632813 -15.02734375 137.69140625 C-24.91052907 127.09334315 -37.77022095 120.37137511 -52.328125 119.65625 C-61.77000354 119.40663896 -71.17330729 119.25963584 -80 123 Z " fill="#FF005C" transform="translate(2153,454)"/>
<path d="M0 0 C11.88 0 23.76 0 36 0 C36 91.41 36 182.82 36 277 C24.12 277 12.24 277 0 277 C-0.99 271.555 -0.99 271.555 -2 266 C-3.340625 266.86625 -4.68125 267.7325 -6.0625 268.625 C-28.93184796 282.28846637 -58.11668209 285.87971814 -83.91992188 279.52734375 C-98.6601476 275.64455258 -112.57853362 269.27095236 -124 259 C-124 258.34 -124 257.68 -124 257 C-124.58394531 256.74734375 -125.16789062 256.4946875 -125.76953125 256.234375 C-137.96203287 249.48686097 -147.26435281 229.94881198 -151.15234375 217.23046875 C-156.60414431 197.83970181 -158.04464887 174.45692636 -152 155 C-151.80132324 154.35853027 -151.60264648 153.71706055 -151.39794922 153.05615234 C-143.78841644 129.19014955 -127.86178646 109.66227995 -105.72265625 97.8515625 C-81.56598677 85.55292507 -52.74296923 83.11703404 -26.80859375 91.25390625 C-17.40132409 94.48907571 -9.85286529 98.94121983 -1 104 C-0.505 52.52 -0.505 52.52 0 0 Z M-82 124 C-82.85207031 124.32742188 -83.70414063 124.65484375 -84.58203125 124.9921875 C-98.55021424 131.01940347 -109.10557961 144.25855036 -114.93359375 157.97265625 C-121.71898348 177.2352095 -120.71647889 198.73804416 -112.3828125 217.3515625 C-110.32834904 221.28638235 -107.85816988 224.62015901 -105 228 C-104.55011719 228.59296875 -104.10023437 229.1859375 -103.63671875 229.796875 C-95.62739808 239.99465794 -82.68558346 246.80801577 -70 249 C-51.39311168 250.59977522 -35.21483552 248.6206862 -20.22265625 236.8125 C-7.67959354 226.07605126 0.03622966 212.48376921 2 196 C3.09759444 174.42343171 0.80648241 155.35225155 -13.7109375 138.3125 C-24.97092432 126.93722321 -38.79817107 119.88000858 -54.86621094 119.61987305 C-64.68840817 119.63772231 -72.8698964 120.06663154 -82 124 Z " fill="#FF005C" transform="translate(1332,454)"/>
<path d="M0 0 C1.37671875 1.04607422 1.37671875 1.04607422 2.78125 2.11328125 C3.5134375 2.73589844 4.245625 3.35851562 5 4 C5 4.66 5 5.32 5 6 C5.66 6 6.32 6 7 6 C28.05305776 30.06526449 33.32145611 56.63554705 32 88 C29.7756717 114.42322886 15.96372149 134.99269276 -3.47265625 151.97265625 C-23.98051641 168.42331996 -50.55566812 174.31695196 -76.41601562 171.76123047 C-92.69691608 169.73446538 -108.73040578 164.95219567 -122 155 C-122.33 189.32 -122.66 223.64 -123 259 C-134.88 259 -146.76 259 -159 259 C-159 167.59 -159 76.18 -159 -18 C-147.12 -18 -135.24 -18 -123 -18 C-122.34 -14.37 -121.68 -10.74 -121 -7 C-119.79730469 -7.76183594 -119.79730469 -7.76183594 -118.5703125 -8.5390625 C-81.82788373 -31.07456531 -32.90416412 -28.09598521 0 0 Z M-113 32 C-118.54243897 39.7509204 -121.62898547 47.82187925 -124 57 C-124.1743457 57.59973633 -124.34869141 58.19947266 -124.52832031 58.81738281 C-127.6684988 73.34802242 -126.02940739 90.48581101 -120 104 C-119.56558594 104.99644531 -119.13117188 105.99289062 -118.68359375 107.01953125 C-111.62839789 121.39122651 -99.03251202 131.75725614 -84 137 C-69.09674654 141.4468086 -52.11849566 140.55718926 -38 134 C-21.82296676 125.06712538 -11.22941624 111.75141685 -6 94 C-2.01446597 75.13098732 -3.06122255 54.32960975 -13.0625 37.4375 C-22.78782544 23.13797488 -35.94682455 13.36978916 -53 10 C-56.9282237 9.57238403 -60.80047505 9.4746969 -64.75 9.5 C-66.32044067 9.50858032 -66.32044067 9.50858032 -67.92260742 9.51733398 C-86.21124131 9.93602852 -101.26186433 18.01839812 -113 32 Z " fill="#FF005C" transform="translate(1570,563)"/>
<path d="M0 0 C15.30977074 13.81508632 19.50699049 29.2355423 21.25292969 49.16259766 C21.70863911 58.2787792 21.61644212 67.40840162 21.5571115 76.53300691 C21.53801496 79.98021188 21.53656889 83.42742985 21.53303528 86.87467957 C21.52380954 93.36580184 21.49932811 99.85676768 21.46898681 106.34782189 C21.43514275 113.75322431 21.41888238 121.15863526 21.4039005 128.56409609 C21.37276679 143.76369737 21.31787771 158.96309616 21.25292969 174.16259766 C11.02292969 174.16259766 0.79292969 174.16259766 -9.74707031 174.16259766 C-11.99707031 166.28759766 -11.99707031 166.28759766 -12.59863281 163.19775391 C-12.72753906 162.54355469 -12.85644531 161.88935547 -12.98925781 161.21533203 C-13.11558594 160.55855469 -13.24191406 159.90177734 -13.37207031 159.22509766 C-13.50613281 158.54125 -13.64019531 157.85740234 -13.77832031 157.15283203 C-14.1039208 155.48994383 -14.42588375 153.82634404 -14.74707031 152.16259766 C-15.15699219 152.66791016 -15.56691406 153.17322266 -15.98925781 153.69384766 C-16.52808594 154.34353516 -17.06691406 154.99322266 -17.62207031 155.66259766 C-18.15574219 156.31228516 -18.68941406 156.96197266 -19.23925781 157.63134766 C-19.73683594 158.13666016 -20.23441406 158.64197266 -20.74707031 159.16259766 C-21.40707031 159.16259766 -22.06707031 159.16259766 -22.74707031 159.16259766 C-22.74707031 159.82259766 -22.74707031 160.48259766 -22.74707031 161.16259766 C-40.57813966 176.06578431 -60.86897902 180.85205671 -83.74707031 179.16259766 C-99.06017741 177.33598448 -110.92186075 170.56184363 -120.78613281 158.71337891 C-124.83151932 153.2305891 -127.66101531 147.64089913 -129.74707031 141.16259766 C-130.08544922 140.12232422 -130.08544922 140.12232422 -130.43066406 139.06103516 C-134.42306595 124.3579827 -131.67952477 108.47223716 -124.74707031 95.16259766 C-112.86208782 76.67736725 -95.03769772 66.38295286 -73.87207031 61.41259766 C-60.63902221 58.88641985 -47.22638159 59.02393925 -33.80957031 59.10009766 C-32.23991031 59.10513122 -30.67024871 59.10969079 -29.10058594 59.11376953 C-25.31604014 59.12460853 -21.53157375 59.1417667 -17.74707031 59.16259766 C-18.07618847 41.25307056 -18.07618847 41.25307056 -26.74707031 26.16259766 C-26.74707031 25.50259766 -26.74707031 24.84259766 -26.74707031 24.16259766 C-27.42769531 23.89447266 -28.10832031 23.62634766 -28.80957031 23.35009766 C-30.95516477 22.48272968 -33.07772525 21.55775451 -35.18457031 20.60009766 C-46.1223701 16.1865995 -60.84778367 16.67168788 -71.74707031 21.16259766 C-81.49939471 25.91265221 -86.2100272 31.41635689 -90.74707031 41.16259766 C-98.22078666 39.32479856 -105.55013961 37.02405177 -112.87207031 34.66259766 C-113.82106201 34.36603271 -114.77005371 34.06946777 -115.74780273 33.76391602 C-116.63701416 33.47266846 -117.52622559 33.1814209 -118.44238281 32.88134766 C-119.24691895 32.62289062 -120.05145508 32.36443359 -120.88037109 32.09814453 C-122.74707031 31.16259766 -122.74707031 31.16259766 -123.74707031 28.16259766 C-117.32357202 11.34190542 -106.12228702 -1.26607089 -89.70263672 -8.77197266 C-82.32351332 -11.89583026 -74.69419366 -14.63989061 -66.74707031 -15.83740234 C-66.03679688 -15.94697266 -65.32652344 -16.05654297 -64.59472656 -16.16943359 C-43.08386511 -19.0047844 -16.88106697 -14.4761642 0 0 Z M-88.21191406 104.34228516 C-93.54881278 110.67051621 -95.96324955 117.93427558 -95.74707031 126.16259766 C-95.26946918 131.66496072 -93.35081476 135.58707053 -89.59082031 139.62353516 C-81.69904556 146.21116069 -71.57913385 146.81177352 -61.74707031 146.16259766 C-46.96451833 143.79515238 -35.89799602 136.83865128 -26.37207031 125.35009766 C-21.28493122 118.02922893 -19.62976463 110.04235586 -19.14160156 101.26025391 C-19.10151978 100.57386841 -19.06143799 99.88748291 -19.0201416 99.18029785 C-18.92331616 97.50805695 -18.8343648 95.83536317 -18.74707031 94.16259766 C-24.66950282 94.11277457 -30.59181051 94.07667953 -36.5144043 94.05273438 C-38.52484261 94.04274102 -40.53526664 94.02914178 -42.5456543 94.01171875 C-67.04724047 93.38318839 -67.04724047 93.38318839 -88.21191406 104.34228516 Z " fill="#FF005C" transform="translate(2356.7470703125,554.83740234375)"/>
<path d="M0 0 C0.43828125 0.42796875 0.8765625 0.8559375 1.328125 1.296875 C1.328125 1.956875 1.328125 2.616875 1.328125 3.296875 C1.988125 3.296875 2.648125 3.296875 3.328125 3.296875 C18.11063562 19.58047942 19.50881768 41.00557336 19.44165039 61.9284668 C19.44179642 63.13951584 19.44194244 64.35056488 19.4420929 65.59831238 C19.44152023 68.88269772 19.43654406 72.16703909 19.42951894 75.45141578 C19.42321972 78.89736215 19.42267645 82.34330962 19.42149353 85.78926086 C19.41839943 92.29835748 19.41021221 98.80743707 19.40014404 105.31652623 C19.38892289 112.73380833 19.3834574 120.15109128 19.37844861 127.56837976 C19.36802777 142.81122301 19.34970648 158.05404284 19.328125 173.296875 C9.098125 173.296875 -1.131875 173.296875 -11.671875 173.296875 C-12.661875 169.006875 -13.651875 164.716875 -14.671875 160.296875 C-15.33038364 157.62818208 -15.99292676 154.96044119 -16.671875 152.296875 C-17.32929687 153.00650391 -17.32929687 153.00650391 -18 153.73046875 C-32.67192404 169.02863345 -49.82420539 177.7699813 -71.1171875 178.5 C-89.51167145 178.80813491 -104.56638556 175.89034033 -118.31640625 162.83984375 C-129.99587356 150.2306676 -134.0477574 136.04964404 -133.8828125 119.17578125 C-133.00039378 102.9490814 -124.92714425 88.60800041 -112.953125 77.85546875 C-101.18774769 68.50958435 -88.19478554 63.55140676 -73.671875 60.296875 C-72.9288916 60.12841064 -72.1859082 59.95994629 -71.42041016 59.78637695 C-59.58785171 57.67905063 -47.15208982 58.16371493 -35.171875 58.234375 C-33.65494943 58.23941084 -32.1380222 58.24396999 -30.62109375 58.24804688 C-26.9713186 58.25886264 -23.32160821 58.27600654 -19.671875 58.296875 C-19.88051911 39.93048496 -19.88051911 39.93048496 -28.671875 24.296875 C-31.49529975 22.46981715 -31.49529975 22.46981715 -34.609375 21.046875 C-35.62902344 20.54671875 -36.64867187 20.0465625 -37.69921875 19.53125 C-48.35534148 15.10636855 -62.13890324 16.23219969 -72.80078125 20.0390625 C-81.48020448 23.84147649 -88.07973177 29.16126325 -91.83203125 38.04296875 C-92.10917969 38.78675781 -92.38632813 39.53054688 -92.671875 40.296875 C-100.14559134 38.4590759 -107.4749443 36.15832912 -114.796875 33.796875 C-115.7458667 33.50031006 -116.6948584 33.20374512 -117.67260742 32.89819336 C-118.56181885 32.6069458 -119.45103027 32.31569824 -120.3671875 32.015625 C-121.17172363 31.75716797 -121.97625977 31.49871094 -122.80517578 31.23242188 C-124.671875 30.296875 -124.671875 30.296875 -125.671875 27.296875 C-124.76515743 24.97639386 -123.81426848 22.87228891 -122.671875 20.671875 C-122.35081787 20.04595459 -122.02976074 19.42003418 -121.69897461 18.77514648 C-112.82399142 1.94193661 -98.78543684 -7.72241196 -80.9296875 -13.70703125 C-53.66157082 -22.04440505 -22.88995405 -17.30703843 0 0 Z M-90.20703125 103.61328125 C-95.66966848 109.8916723 -98.02356612 118.54356901 -97.51953125 126.7890625 C-96.61824837 131.88774853 -94.79410536 136.00481603 -90.671875 139.296875 C-80.17151067 145.66962901 -69.66641571 146.85133876 -57.671875 144.171875 C-43.56877878 140.16343305 -32.41074933 132.60334626 -25.109375 119.609375 C-21.3673321 111.38119422 -20.671875 102.25051071 -20.671875 93.296875 C-26.59430751 93.24705191 -32.5166152 93.21095687 -38.43920898 93.18701172 C-40.4496473 93.17701836 -42.46007133 93.16341912 -44.47045898 93.14599609 C-69.03811667 92.53445056 -69.03811667 92.53445056 -90.20703125 103.61328125 Z " fill="#FF005C" transform="translate(1754.671875,555.703125)"/>
<path d="M0 0 C1.78553681 1.5246131 3.55708016 3.06580534 5.3125 4.625 C6.08335937 5.30046875 6.85421875 5.9759375 7.6484375 6.671875 C24.13816043 22.06228307 34.40970548 44.87880859 35.43676758 67.34301758 C35.78407075 80.42118611 35.66156214 92.92466047 32.3125 105.625 C32.04566406 106.65109375 31.77882813 107.6771875 31.50390625 108.734375 C24.74613377 131.44049055 8.30726906 151.38720531 -12.41796875 162.69140625 C-38.83434502 176.64263504 -68.03468359 178.08567903 -96.375 169.4375 C-120.24666606 160.97344855 -138.73866832 143.29658578 -149.90527344 120.79931641 C-153.00452854 114.28109034 -155.08580711 107.66401874 -156.6875 100.625 C-156.91179688 99.72394531 -157.13609375 98.82289063 -157.3671875 97.89453125 C-162.85029464 71.86855008 -157.38475945 43.55939382 -143.2109375 21.2734375 C-139.32748316 15.4681476 -134.64154123 10.52109922 -129.6875 5.625 C-128.97078125 4.89796875 -128.2540625 4.1709375 -127.515625 3.421875 C-93.86150021 -28.71401859 -35.5595115 -28.31955556 0 0 Z M-85.6875 16.625 C-86.62464844 17.0375 -87.56179688 17.45 -88.52734375 17.875 C-104.37847173 25.70052181 -114.19639677 38.93937352 -119.77734375 55.3984375 C-124.78923312 73.16590797 -123.24559753 94.96286846 -115 111.5 C-107.00052883 124.87254954 -95.39108006 134.61374022 -80.6875 139.625 C-79.65238281 139.99109375 -78.61726563 140.3571875 -77.55078125 140.734375 C-64.62007993 143.7153658 -48.82743035 143.16793227 -36.6875 137.625 C-35.88828125 137.26277344 -35.0890625 136.90054688 -34.265625 136.52734375 C-18.92123306 128.72286854 -9.16691315 115.98827019 -3.75390625 99.83984375 C-1.97985972 93.80469026 -1.00733963 87.9018527 -0.6875 81.625 C-0.64625 80.83609375 -0.605 80.0471875 -0.5625 79.234375 C-0.06401115 59.9179321 -6.22813603 42.93286072 -19.40234375 28.87890625 C-32.12280614 16.3323989 -46.99771289 12.10840307 -64.48461914 12.20336914 C-72.08312001 12.39916349 -78.6955013 13.51312297 -85.6875 16.625 Z " fill="#FF005C" transform="translate(1123.6875,561.375)"/>
<path d="M0 0 C1.52173828 0.309375 1.52173828 0.309375 3.07421875 0.625 C22.12626006 4.91841776 39.71517809 15.8758943 52 31 C52.63550781 31.71414063 53.27101563 32.42828125 53.92578125 33.1640625 C70.0648941 51.90423626 76.36453522 77.69421637 75 102 C72.84903605 128.6450659 62.29748899 153.06204162 41.8046875 170.828125 C19.4876284 189.4473454 -7.3684739 194.78270984 -35.83203125 192.72265625 C-62.00658689 189.58170957 -84.64678802 176.52574309 -101 156 C-117.93319824 132.20517534 -123.01181067 103.88329684 -118.28125 75.3671875 C-113.57943158 50.34422199 -99.78238291 28.77885217 -78.78857422 14.18164062 C-55.53313866 -1.18231079 -27.18497515 -5.7006501 0 0 Z M-70 53 C-82.59802374 68.37385947 -84.32676883 88.22826914 -82.72265625 107.296875 C-81.15572045 118.57881278 -76.96655859 128.99151907 -70 138 C-69.47664062 138.68707031 -68.95328125 139.37414062 -68.4140625 140.08203125 C-59.92540441 150.5035528 -47.24912861 157.71063892 -34 160 C-13.11051839 161.79602706 2.89885314 158.49793846 19.1875 144.8125 C31.23405849 133.4734378 37.63350476 118.39217297 38.23828125 101.91015625 C38.59067207 83.35249362 36.34275478 66.22207689 23.625 51.6875 C22.10219532 50.10661156 20.56149639 48.54268318 19 47 C18.07767578 46.04480469 18.07767578 46.04480469 17.13671875 45.0703125 C5.50981605 33.86665894 -8.97743968 30.57562009 -24.56396484 30.63647461 C-43.37853207 30.98848506 -57.71828531 38.96375464 -70 53 Z " fill="#FF005C" transform="translate(873,543)"/>
<path d="M0 0 C2.48904107 2.174207 4.82114292 4.42487774 7.125 6.79296875 C7.67414063 7.30988281 8.22328125 7.82679688 8.7890625 8.359375 C22.18703579 22.07975941 25.2927304 42.47509882 25.23852539 60.70483398 C25.23867142 61.99332748 25.23881744 63.28182098 25.2389679 64.60935974 C25.23925367 68.12537613 25.23339249 71.64135809 25.22639394 75.15736651 C25.22012379 78.83823136 25.21955371 82.51909707 25.21836853 86.19996643 C25.21526599 93.16252006 25.20706715 100.12505789 25.19701904 107.08760458 C25.18582441 115.01748084 25.18033902 122.94735787 25.17532361 130.87724006 C25.16488361 147.18249364 25.14655155 163.48772549 25.125 179.79296875 C13.245 179.79296875 1.365 179.79296875 -10.875 179.79296875 C-10.89481934 176.11930176 -10.91463867 172.44563477 -10.93505859 168.66064453 C-11.00204132 156.50685508 -11.07958197 144.35315437 -11.16252708 132.1994648 C-11.21254743 124.8325417 -11.25899111 117.46562914 -11.296875 110.09863281 C-11.32992214 103.67399831 -11.36982257 97.24944823 -11.41779006 90.82490718 C-11.44292929 87.42639817 -11.46474686 84.02794425 -11.47834396 80.62936783 C-11.49528791 76.8258692 -11.52434321 73.02263771 -11.55615234 69.21923828 C-11.55831253 68.1050502 -11.56047272 66.99086212 -11.56269836 65.84291077 C-11.70580063 52.40001193 -14.36968413 39.84836077 -23.875 29.79296875 C-34.31711418 21.12871453 -48.84951805 19.97030673 -61.875 20.79296875 C-74.24584933 22.73672404 -83.91553957 29.28583546 -91.875 38.79296875 C-100.07418101 50.71524726 -103.16379222 63.9366334 -103.19384766 78.18774414 C-103.20891609 79.84294571 -103.20891609 79.84294571 -103.22428894 81.53158569 C-103.25499176 85.15126053 -103.27212026 88.77086184 -103.2890625 92.390625 C-103.30778451 94.91125617 -103.32735869 97.43188115 -103.3477478 99.95249939 C-103.39374072 105.89142546 -103.43118787 111.8303658 -103.46442068 117.76937336 C-103.50276778 124.53613766 -103.55214453 131.30280779 -103.60240483 138.06949246 C-103.70546141 151.97725487 -103.79335085 165.88506503 -103.875 179.79296875 C-115.755 179.79296875 -127.635 179.79296875 -139.875 179.79296875 C-139.875 118.08296875 -139.875 56.37296875 -139.875 -7.20703125 C-128.655 -7.20703125 -117.435 -7.20703125 -105.875 -7.20703125 C-103.20833333 -1.87369792 -100.54166667 3.45963542 -97.875 8.79296875 C-97.29234375 8.22449219 -96.7096875 7.65601563 -96.109375 7.0703125 C-70.8690569 -16.70162231 -28.44497894 -21.8361591 0 0 Z " fill="#FF005C" transform="translate(1949.875,552.20703125)"/>
<path d="M0 0 C-2.85834622 10.70626173 -5.9431395 21.349192 -9 32 C-9.95229492 31.79105103 -9.95229492 31.79105103 -10.92382812 31.57788086 C-21.030133 29.44401218 -32.65203242 27.42156476 -41.87011719 33.2565918 C-46.13437807 36.74708778 -47.60838566 41.65791236 -48.24008179 47.04888916 C-48.66519457 52.73618156 -48.70108986 58.42397438 -48.75 64.125 C-48.8325 70.02375 -48.915 75.9225 -49 82 C-34.81 82 -20.62 82 -6 82 C-6 92.89 -6 103.78 -6 115 C-21.18 115 -36.36 115 -52 115 C-52 165.82 -52 216.64 -52 269 C-63.55 269 -75.1 269 -87 269 C-87 218.18 -87 167.36 -87 115 C-97.89 115 -108.78 115 -120 115 C-120 104.11 -120 93.22 -120 82 C-109.11 82 -98.22 82 -87 82 C-87.02320313 79.5146875 -87.04640625 77.029375 -87.0703125 74.46875 C-87.08600743 72.00277209 -87.09809577 69.53680021 -87.10986328 67.07080078 C-87.11978592 65.38555318 -87.13332834 63.70032214 -87.15087891 62.01513672 C-87.53716214 23.90943206 -87.53716214 23.90943206 -74.79296875 10.73046875 C-74.20128906 10.15941406 -73.60960937 9.58835937 -73 9 C-72.50113281 8.48050781 -72.00226562 7.96101563 -71.48828125 7.42578125 C-53.9071923 -9.44674996 -20.67145876 -12.48900634 0 0 Z " fill="#FF005C" transform="translate(756,463)"/>
<path d="M0 0 C9.31128306 -0.34265522 17.61350379 1.0880645 24.81640625 7.28515625 C32.40327787 14.81113805 37.49139966 22.83153398 38.87890625 33.53515625 C37.20386678 47.41405475 28.25115487 56.96532805 19.44140625 67.09765625 C6.82795264 81.64291798 -1.91361969 97.30089812 -8.03759766 115.51416016 C-10.59486428 122.93390257 -13.82653024 129.7311671 -20.55859375 134.16015625 C-28.90308396 136.94165299 -36.95434234 135.33131121 -44.74609375 131.69921875 C-59.77158605 123.47693546 -69.28056 109.88838673 -74.43359375 93.78515625 C-75.53908818 89.614119 -76.29329697 85.46921912 -76.55859375 81.16015625 C-76.61144531 80.38671875 -76.66429687 79.61328125 -76.71875 78.81640625 C-77.40433773 59.02378654 -70.99857961 39.09668334 -57.4453125 24.52783203 C-41.75681975 8.38834579 -22.02758654 1.37882603 0 0 Z M-6.55859375 37.72265625 C-8.87673967 41.70696956 -9.29989498 43.62998207 -8.55859375 48.16015625 C-7.02613197 51.09737467 -5.88792881 52.67650456 -2.72265625 53.828125 C1.10146232 54.56804066 3.20782865 54.25358729 6.87890625 52.78515625 C9.97362613 49.6149554 10.46614742 47.68578889 10.6875 43.3515625 C10.31417293 40.02717386 8.86071303 38.37209388 6.44140625 36.16015625 C1.43447204 33.65668915 -2.51868578 34.27190153 -6.55859375 37.72265625 Z " fill="#FF005C" transform="translate(248.55859375,528.83984375)"/>
<path d="M0 0 C1.43535648 1.18607153 2.85207499 2.39503271 4.25 3.625 C4.99894531 4.27984375 5.74789062 4.9346875 6.51953125 5.609375 C20.9208519 19.05387877 27.1807663 37.13150142 28.43359375 56.45703125 C28.87919736 74.7792033 22.57523775 92.08652132 9.9375 105.4375 C5.47369999 109.68114661 0.72613092 112.83324698 -4.75 115.625 C-5.39453125 115.9653125 -6.0390625 116.305625 -6.703125 116.65625 C-12.73174573 119.39192663 -19.2592402 119.37914833 -25.75 118.625 C-33.10697981 115.20925937 -36.58816912 109.52461056 -39.36328125 102.1875 C-40.03628662 100.31937253 -40.70899297 98.45110582 -41.36932373 96.57846069 C-48.32732877 76.96989942 -57.98826746 62.07090208 -71.5625 46.3671875 C-87.71600147 27.50501962 -87.71600147 27.50501962 -86.75 14.625 C-85.09041526 4.32626856 -78.92169072 -4.96746247 -70.75 -11.375 C-49.14511766 -24.00023319 -18.44698466 -13.76355332 0 0 Z M-57.75 22.625 C-59.31935594 25.76371188 -59.10201103 28.16355822 -58.75 31.625 C-56.17950213 35.20811824 -54.49541015 36.41202567 -50.25 37.625 C-46.3236584 37.625 -44.78417666 37.05234133 -41.75 34.625 C-39.2584096 30.8876144 -39.29206715 29.05168417 -39.75 24.625 C-41.54562405 21.87170979 -42.80254922 20.09872539 -45.75 18.625 C-51.25023842 18.10610958 -53.81804501 18.69304501 -57.75 22.625 Z " fill="#FF005C" transform="translate(446.75,545.375)"/>
<path d="M0 0 C33.33 0 66.66 0 101 0 C97.05042771 15.79828915 89.98228313 26.59422862 76 35 C63.56841286 41.89023451 50.75545278 43.4924475 36.8984375 40.28125 C20.88980877 35.48279798 10.73260083 25.62561396 2.56640625 11.5625 C1 8 1 8 0 0 Z " fill="#FF005C" transform="translate(275,678)"/>
<path d="M0 0 C2.24710303 -0.00217696 4.49370692 -0.02033096 6.74072266 -0.03930664 C26.18759483 -0.11727195 26.18759483 -0.11727195 34.01806641 6.18530273 C36.41796067 9.78514414 36.65942772 10.93628401 36.01806641 15.18530273 C30.33649636 25.81394328 19.0922003 32.41877097 8.01806641 36.18530273 C-3.62897099 38.41592549 -14.15047697 32.28773476 -23.56005859 26.00561523 C-28.31916738 22.42860766 -31.32803644 19.29230467 -33.10693359 13.56030273 C-32.98193359 10.18530273 -32.98193359 10.18530273 -31.66943359 7.49780273 C-22.68951285 -0.22910581 -11.19784306 -0.00121425 0 0 Z " fill="#FF005C" transform="translate(322.98193359375,628.814697265625)"/>
</svg>
