<svg xmlns="http://www.w3.org/2000/svg" xml:space="preserve" id="Layer_1" width="600" height="300" x="0" y="0" style="enable-background:new 0 0 2285.14 800" version="1.1" viewBox="0 0 2285.14 800"><style type="text/css">.st0{fill:#00b14f}</style><g><path d="M125.68 399.35c0 73.44 55.42 129.76 127.06 129.76 68.94 0 103.63-44.61 103.63-93.72v-17.57H255.89v27.03h72.99c.45 26.58-23.88 57.67-76.14 57.67-57.67 0-97.77-42.8-97.77-103.18 0-58.12 43.25-101.83 102.73-101.83 38.75 0 69.39 9.46 97.77 29.29l1.8-1.35v-25.23c-21.18-14.87-57.22-29.29-100.47-29.29-73.45.01-131.12 56.78-131.12 128.42zm-41.9 0c0 97.32 72.09 169.86 168.96 169.86 88.31 0 142.38-55.42 142.38-145.08v-45.96H255.89v26.13h113.99v24.33c0 70.29-43.7 113.99-117.15 113.99-80.65 0-140.57-61.73-140.57-143.28 0-79.3 63.08-141.93 144.63-141.93 38.75 0 73.89 9.46 100.47 27.93v-26.58c-25.68-18.47-59.47-27.93-100.47-27.93-97.77.01-173.01 74.35-173.01 168.52zm368.56 22.98v139.22h26.58V422.78c0-31.09 20.28-53.17 50.46-53.17 9.01 0 17.12 2.25 25.68 5.86 3.6-8.56 7.21-15.77 11.71-22.53-9.46-6.31-23.43-10.36-36.95-10.36-45.49 0-77.48 32.89-77.48 79.75zm-39.2 139.22h26.58V422.33c0-54.97 36.95-92.36 90.56-92.36 18.02 0 36.5 5.86 44.61 10.81 4.96-5.86 10.36-12.17 17.57-18.02-16.67-11.71-39.2-18.47-63.53-18.47-70.74 0-115.79 47.76-115.79 118.5v138.76zm416.77-155.89v39.2c15.77-21.18 29.29-39.65 41.9-54.97 31.99-39.2 59.92-60.83 103.18-60.83 58.57 0 101.38 44.15 101.38 106.33 0 60.83-41.9 107.23-99.57 107.23-46.86 0-87.41-31.99-96.87-75.69l-18.92 25.68c14.87 42.8 58.57 76.6 115.34 76.6 72.99 0 126.61-58.57 126.61-133.82 0-76.14-54.07-133.37-127.96-133.37-76.61.01-111.75 57.23-145.09 103.64zm82.45 19.82h-.9l-20.73 28.39c3.6 32.44 36.5 75.69 86.06 75.69 50.46 0 86.96-41 86.96-94.62s-37.4-93.27-88.76-93.27c-50.01 0-78.85 36.5-99.12 63.53-9.91 13.07-27.03 34.24-45.96 60.83v43.25c17.57-26.13 41.45-56.77 59.02-77.95 29.74-35.59 47.76-62.63 85.61-62.63 36.95 0 62.18 28.39 62.18 66.23 0 39.2-23.88 68.03-59.92 68.03-37.85 0-64.43-34.69-64.43-73.44v-4.04zm-26.59-218.07V319.6c8.11-6.31 17.12-13.97 26.58-17.57v-94.62h-26.58zM846.13 360.6c8.11-10.36 17.12-21.63 26.58-31.09v-122.1h-26.58V360.6zM737.99 489.01l-.45-.45c-11.26 9.01-29.74 14.42-47.31 14.42-36.04 0-63.08-27.03-63.08-67.13 0-38.3 26.58-67.58 62.18-67.58 38.3 0 61.73 27.93 61.73 65.33v127.96h26.58V432.24c0-52.26-36.5-90.56-87.86-90.56-50.91 0-90.11 38.3-90.11 94.17 0 55.42 38.75 95.07 90.11 93.72 19.37-.45 39.2-7.66 48.21-13.97v-26.59zm-178.42-53.62c0 78.4 55.42 133.82 130.21 133.82 16.67 0 36.04-4.96 48.21-14.42v-26.58c-8.11 6.76-27.93 14.42-48.21 14.42-61.28 0-102.73-43.25-102.73-107.23 0-60.83 44.15-106.33 102.73-106.33 58.12 0 100.47 42.8 100.47 102.73v129.76h27.03V431.34c0-74.79-52.72-129.76-127.51-129.76-73.43 0-130.2 58.12-130.2 133.81zM1200.21 285.43v99.66h132.13v48.7h-132.13v127.62h-52.76V236.72h200.23v48.7h-147.47zm425.73 151.07c0 78.92-51.41 131.68-126.72 131.68s-127.17-52.76-127.17-131.68c0-78.92 51.86-132.13 127.17-132.13s126.72 53.21 126.72 132.13zm-126.72-82.98c-43.29 0-75.31 34.27-75.31 82.98s32.02 82.53 75.31 82.53 74.86-33.82 74.86-82.53-31.57-82.98-74.86-82.98zm409.5 82.98c0 78.92-51.41 131.68-126.72 131.68s-127.17-52.76-127.17-131.68c0-78.92 51.86-132.13 127.17-132.13 75.32 0 126.72 53.21 126.72 132.13zm-126.71-82.98c-43.29 0-75.31 34.27-75.31 82.98s32.02 82.53 75.31 82.53 74.86-33.82 74.86-82.53-31.57-82.98-74.86-82.98zm279.17-49.15c36.08 0 66.74 20.74 75.76 43.29h2.25v-138h51.86v224.58c0 81.62-52.31 133.93-126.27 133.93s-127.17-50.96-127.17-132.13c.01-82.52 53.22-131.67 123.57-131.67zm3.61 214.65c42.84 0 74.41-34.27 74.41-86.58 0-47.8-32.92-78.92-75.31-78.92s-74.41 30.67-74.41 80.72c0 51.86 32.47 84.78 75.31 84.78z" class="st0"/></g></svg>